HIERARCHY
ROOT hips
{
	OFFSET 0.000000 104.274902 0.000000
	CHANNELS 6 Xposition Yposition Zposition Xrotation Yrotation Zrotation
	JOINT spine
	{
		OFFSET 0.000000 10.181549 0.131524
		CHANNELS 6 Xposition Yposition Zposition Xrotation Yrotation Zrotation
		JOINT chest
		{
			OFFSET 0.000000 9.893990 -1.470706
			CHANNELS 3 Xrotation Yrotation Zrotation
			JOINT upperChest
			{
				OFFSET 0.000000 9.220787 -1.370637
				CHANNELS 3 Xrotation Yrotation Zrotation
				JOINT neck
				{
					OFFSET 0.000000 16.740372 -2.049022
					CHANNELS 6 Xposition Yposition Zposition Xrotation Yrotation Zrotation
					JOINT head
					{
						OFFSET 0.000000 9.617859 1.684976
						CHANNELS 6 Xposition Yposition Zposition Xrotation Yrotation Zrotation
						JOINT headEnd
						{
							OFFSET 0.000000 22.037384 7.501072
							CHANNELS 6 Xposition Yposition Zposition Xrotation Yrotation Zrotation
							End Site
							{
								OFFSET 0.000000 23.106567 -2.828246
							}
						}
					}
				}
				JOINT rightShoulder
				{
					OFFSET -4.570000 11.014877 -2.160840
					CHANNELS 6 Xposition Yposition Zposition Xrotation Yrotation Zrotation
					JOINT rightUpperArm
					{
						OFFSET -10.592867 -0.524796 -2.232105
						CHANNELS 3 Xrotation Yrotation Zrotation
						JOINT rightLowerArm
						{
							OFFSET -27.841497 0.000000 -0.000002
							CHANNELS 3 Xrotation Yrotation Zrotation
							JOINT rightHand
							{
								OFFSET -28.328812 0.000000 -0.000001
								CHANNELS 3 Xrotation Yrotation Zrotation
								JOINT rightThumbProximal
								{
									OFFSET -2.464798 -1.573990 2.681911
									CHANNELS 6 Xposition Yposition Zposition Xrotation Yrotation Zrotation
									JOINT rightThumbIntermediate
									{
										OFFSET -3.244781 -1.873383 1.873376
										CHANNELS 3 Xrotation Yrotation Zrotation
										JOINT rightThumbDistal
										{
											OFFSET -2.646263 -1.527817 1.527818
											CHANNELS 6 Xposition Yposition Zposition Xrotation Yrotation Zrotation
											JOINT rightHandThumb4
											{
												OFFSET -1.994591 -1.151581 1.151575
												CHANNELS 6 Xposition Yposition Zposition Xrotation Yrotation Zrotation
												End Site
												{
													OFFSET -1.860176 -1.142715 1.365483
												}
											}
										}
									}
								}
								JOINT rightIndexProximal
								{
									OFFSET -9.108299 -0.517883 2.259803
									CHANNELS 6 Xposition Yposition Zposition Xrotation Yrotation Zrotation
									JOINT rightIndexIntermediate
									{
										OFFSET -3.699997 0.000000 0.000000
										CHANNELS 3 Xrotation Yrotation Zrotation
										JOINT rightIndexDistal
										{
											OFFSET -2.850006 0.000000 0.000000
											CHANNELS 3 Xrotation Yrotation Zrotation
											JOINT rightHandIndex4
											{
												OFFSET -2.772194 0.000000 0.000000
												CHANNELS 3 Xrotation Yrotation Zrotation
												End Site
												{
													OFFSET -2.772202 0.000000 -0.000484
												}
											}
										}
									}
								}
								JOINT rightMiddleProximal
								{
									OFFSET -9.532501 0.000000 -0.000000
									CHANNELS 6 Xposition Yposition Zposition Xrotation Yrotation Zrotation
									JOINT rightMiddleIntermediate
									{
										OFFSET -3.699997 0.000000 0.000000
										CHANNELS 3 Xrotation Yrotation Zrotation
										JOINT rightMiddleDistal
										{
											OFFSET -2.949997 0.000000 0.000000
											CHANNELS 3 Xrotation Yrotation Zrotation
											JOINT rightHandMiddle4
											{
												OFFSET -2.946594 0.000000 0.000000
												CHANNELS 3 Xrotation Yrotation Zrotation
												End Site
												{
													OFFSET -2.946602 0.000000 -0.000982
												}
											}
										}
									}
								}
								JOINT rightRingProximal
								{
									OFFSET -9.103600 -0.043106 -1.865100
									CHANNELS 6 Xposition Yposition Zposition Xrotation Yrotation Zrotation
									JOINT rightRingIntermediate
									{
										OFFSET -3.379303 0.000000 0.000000
										CHANNELS 3 Xrotation Yrotation Zrotation
										JOINT rightRingDistal
										{
											OFFSET -2.889694 0.000000 0.000000
											CHANNELS 3 Xrotation Yrotation Zrotation
											JOINT rightHandRing4
											{
												OFFSET -2.638802 0.000000 0.000000
												CHANNELS 3 Xrotation Yrotation Zrotation
												End Site
												{
													OFFSET -2.638802 0.000000 0.004218
												}
											}
										}
									}
								}
								JOINT rightLittleProximal
								{
									OFFSET -8.076698 -0.486725 -3.806299
									CHANNELS 6 Xposition Yposition Zposition Xrotation Yrotation Zrotation
									JOINT rightLittleIntermediate
									{
										OFFSET -3.600006 0.000000 0.000000
										CHANNELS 3 Xrotation Yrotation Zrotation
										JOINT rightLittleDistal
										{
											OFFSET -2.099998 0.000000 0.000000
											CHANNELS 3 Xrotation Yrotation Zrotation
											JOINT rightHandPinky4
											{
												OFFSET -2.115791 0.000000 0.000000
												CHANNELS 3 Xrotation Yrotation Zrotation
												End Site
												{
													OFFSET -2.115799 0.000000 0.000174
												}
											}
										}
									}
								}
							}
						}
					}
				}
				JOINT leftShoulder
				{
					OFFSET 4.570400 11.014679 -2.160816
					CHANNELS 6 Xposition Yposition Zposition Xrotation Yrotation Zrotation
					JOINT leftUpperArm
					{
						OFFSET 10.592373 -0.524597 -2.232116
						CHANNELS 3 Xrotation Yrotation Zrotation
						JOINT leftLowerArm
						{
							OFFSET 27.841488 0.000000 0.000001
							CHANNELS 3 Xrotation Yrotation Zrotation
							JOINT leftHand
							{
								OFFSET 28.328808 0.000000 -0.000000
								CHANNELS 3 Xrotation Yrotation Zrotation
								JOINT leftThumbProximal
								{
									OFFSET 2.466103 -1.576202 2.681698
									CHANNELS 6 Xposition Yposition Zposition Xrotation Yrotation Zrotation
									JOINT leftThumbIntermediate
									{
										OFFSET 3.243317 -1.872528 1.872530
										CHANNELS 3 Xrotation Yrotation Zrotation
										JOINT leftThumbDistal
										{
											OFFSET 2.647881 -1.528763 1.528754
											CHANNELS 6 Xposition Yposition Zposition Xrotation Yrotation Zrotation
											JOINT leftHandThumb4
											{
												OFFSET 1.998924 -1.154083 1.154080
												CHANNELS 6 Xposition Yposition Zposition Xrotation Yrotation Zrotation
												End Site
												{
													OFFSET 1.884041 -1.149155 1.337651
												}
											}
										}
									}
								}
								JOINT leftIndexProximal
								{
									OFFSET 9.109299 -0.518005 2.259900
									CHANNELS 6 Xposition Yposition Zposition Xrotation Yrotation Zrotation
									JOINT leftIndexIntermediate
									{
										OFFSET 3.699997 0.000000 0.000000
										CHANNELS 3 Xrotation Yrotation Zrotation
										JOINT leftIndexDistal
										{
											OFFSET 2.850006 0.000000 0.000000
											CHANNELS 3 Xrotation Yrotation Zrotation
											JOINT leftHandIndex4
											{
												OFFSET 2.774895 0.000000 0.000000
												CHANNELS 3 Xrotation Yrotation Zrotation
												End Site
												{
													OFFSET 2.774902 0.000000 -0.000072
												}
											}
										}
									}
								}
								JOINT leftMiddleProximal
								{
									OFFSET 9.533401 0.000000 0.000000
									CHANNELS 6 Xposition Yposition Zposition Xrotation Yrotation Zrotation
									JOINT leftMiddleIntermediate
									{
										OFFSET 3.699997 0.000000 0.000000
										CHANNELS 3 Xrotation Yrotation Zrotation
										JOINT leftMiddleDistal
										{
											OFFSET 2.949997 0.000000 0.000000
											CHANNELS 3 Xrotation Yrotation Zrotation
											JOINT leftHandMiddle4
											{
												OFFSET 2.952896 0.000000 0.000000
												CHANNELS 3 Xrotation Yrotation Zrotation
												End Site
												{
													OFFSET 2.952904 0.000000 0.000165
												}
											}
										}
									}
								}
								JOINT leftRingProximal
								{
									OFFSET 9.104500 -0.042999 -1.865101
									CHANNELS 6 Xposition Yposition Zposition Xrotation Yrotation Zrotation
									JOINT leftRingIntermediate
									{
										OFFSET 3.149994 0.000000 0.000000
										CHANNELS 3 Xrotation Yrotation Zrotation
										JOINT leftRingDistal
										{
											OFFSET 2.950005 0.000000 0.000000
											CHANNELS 3 Xrotation Yrotation Zrotation
											JOINT leftHandRing4
											{
												OFFSET 2.644302 0.000000 0.000000
												CHANNELS 3 Xrotation Yrotation Zrotation
												End Site
												{
													OFFSET 2.644302 0.000000 0.000083
												}
											}
										}
									}
								}
								JOINT leftLittleProximal
								{
									OFFSET 8.077805 -0.486893 -3.806302
									CHANNELS 6 Xposition Yposition Zposition Xrotation Yrotation Zrotation
									JOINT leftLittleIntermediate
									{
										OFFSET 3.600006 0.000000 0.000000
										CHANNELS 3 Xrotation Yrotation Zrotation
										JOINT leftLittleDistal
										{
											OFFSET 2.099998 0.000000 0.000000
											CHANNELS 3 Xrotation Yrotation Zrotation
											JOINT leftHandPinky4
											{
												OFFSET 2.125496 0.000000 0.000000
												CHANNELS 3 Xrotation Yrotation Zrotation
												End Site
												{
													OFFSET 2.125504 0.000000 -0.001254
												}
											}
										}
									}
								}
							}
						}
					}
				}
			}
		}
	}
	JOINT rightUpperLeg
	{
		OFFSET -8.207800 -6.751701 -1.599544
		CHANNELS 6 Xposition Yposition Zposition Xrotation Yrotation Zrotation
		JOINT rightLowerLeg
		{
			OFFSET 0.000004 -44.370152 0.345934
			CHANNELS 3 Xrotation Yrotation Zrotation
			JOINT rightFoot
			{
				OFFSET 0.000004 -44.423664 -3.043535
				CHANNELS 3 Xrotation Yrotation Zrotation
				JOINT rightToes
				{
					OFFSET 0.000001 -8.728691 10.710592
					CHANNELS 3 Xrotation Yrotation Zrotation
					JOINT rightToesEnd
					{
						OFFSET 0.000000 -0.000665 9.278101
						CHANNELS 3 Xrotation Yrotation Zrotation
						End Site
						{
							OFFSET 0.000000 -0.000665 9.278103
						}
					}
				}
			}
		}
	}
	JOINT leftUpperLeg
	{
		OFFSET 8.207800 -6.751701 -1.599544
		CHANNELS 6 Xposition Yposition Zposition Xrotation Yrotation Zrotation
		JOINT leftLowerLeg
		{
			OFFSET 0.000004 -44.370037 0.346940
			CHANNELS 3 Xrotation Yrotation Zrotation
			JOINT leftFoot
			{
				OFFSET 0.000004 -44.423611 -3.044388
				CHANNELS 3 Xrotation Yrotation Zrotation
				JOINT leftToes
				{
					OFFSET 0.000001 -8.728690 10.710592
					CHANNELS 3 Xrotation Yrotation Zrotation
					JOINT leftToesEnd
					{
						OFFSET 0.000000 -0.000680 9.278101
						CHANNELS 3 Xrotation Yrotation Zrotation
						End Site
						{
							OFFSET 0.000000 -0.000680 9.278101
						}
					}
				}
			}
		}
	}
}
MOTION
Frames: 4
Frame Time: 0.033333
5.880517 102.314232 5.795963 1.325239 1.762628 -2.628082 -0.000000 10.181563 0.131524 0.522287 -1.345525 2.043029 1.130502 -1.553895 4.040375 1.625668 0.230426 4.347097 0.000001 16.740387 -2.049024 3.009159 0.676528 -2.161821 0.000000 9.617852 1.684976 1.653421 6.198571 -10.607008 -0.000001 22.037384 7.501068 -0.000001 -0.000001 0.000001 -4.570000 11.014915 -2.160842 3.431093 -0.779104 -3.275754 42.378452 29.209393 48.239768 -0.000120 73.453022 0.000138 -17.091034 4.602095 -44.397930 -2.464785 -1.574001 2.681901 18.491294 0.461454 -10.916097 0.562922 -26.376615 14.890198 -2.646291 -1.527810 1.527822 7.420186 13.014737 -1.507336 -1.994594 -1.151584 1.151572 -0.000000 -0.000003 0.000001 -9.108282 -0.517887 2.259801 1.810263 -8.129030 45.898957 5.787273 -6.557109 89.986062 1.527391 -4.199760 56.404757 0.000001 0.000002 0.000002 -9.532498 -0.000005 -0.000007 1.192581 -8.721388 39.978081 4.283003 -6.451086 76.245470 4.143215 -5.607315 73.975375 -0.000000 -0.000001 -0.000001 -9.103601 -0.043106 -1.865106 10.904575 -12.390627 80.288252 5.632466 -5.495768 83.822185 1.733587 -3.780493 60.293468 0.000001 0.000003 0.000000 -8.076689 -0.486726 -3.806304 18.555488 -24.475534 92.022428 5.094565 -6.030693 88.483045 0.812248 -4.689122 64.646791 0.000003 0.000000 -0.000001 4.570402 11.014701 -2.160819 3.161780 -14.460363 -7.194658 2.414774 9.204243 -81.419072 0.000008 -21.733396 0.000024 -28.851972 -1.917773 -4.805464 2.466078 -1.576222 2.681694 18.491375 -0.461338 10.916045 1.284020 32.757615 -3.088995 2.647907 -1.528746 1.528750 2.117101 9.311251 -0.358934 1.998924 -1.154090 1.154071 0.000000 -0.000002 -0.000000 9.109289 -0.518013 2.259902 0.339552 4.671367 -7.844279 0.387015 2.823622 -20.566239 0.034600 0.816845 -10.169810 -0.000000 0.000000 -0.000002 9.533389 -0.000016 0.000002 0.911184 8.764261 -15.831994 0.919046 3.991204 -33.400510 0.170555 1.488890 -12.264409 -0.000000 -0.000000 0.000002 9.104481 -0.043002 -1.865098 2.554750 11.670825 -26.909098 1.710624 3.886862 -40.215580 0.544834 1.835104 -19.344144 0.000000 -0.000001 0.000000 8.077787 -0.486888 -3.806296 5.574256 16.026919 -36.940433 1.378657 4.077728 -45.645611 0.486565 2.853426 -20.524727 -0.000000 -0.000001 -0.000000 -8.207800 -6.751697 -1.599544 -1.153400 -6.400458 4.508266 11.660358 -5.013180 2.125228 -11.169338 2.032359 -3.007096 -1.450143 0.000009 -0.000001 0.000000 0.000000 0.000000 8.207801 -6.751691 -1.599543 -16.212347 9.610568 9.051065 20.555847 8.593151 1.303882 -5.317467 4.045282 -5.863047 0.100440 -0.000022 0.000004 -0.000000 -0.000000 0.000000 
5.090913 102.307846 5.485172 0.893147 0.310863 -2.892285 -0.000000 10.181546 0.131523 0.645993 -1.243363 2.108074 1.245736 -1.201656 4.139156 1.700886 0.494702 4.415307 0.000000 16.740360 -2.049021 2.861852 0.677902 -2.095563 -0.000003 9.617839 1.684975 1.742377 6.423372 -10.306195 0.000002 22.037369 7.501071 -0.000000 -0.000000 0.000000 -4.570002 11.014870 -2.160840 3.399796 -0.724890 -3.464140 41.106472 28.157270 47.593202 -0.000178 73.428270 0.000225 -21.528871 4.486866 -39.316485 -2.464792 -1.573997 2.681910 18.491293 0.461454 -10.916108 0.562935 -26.376604 14.890214 -2.646243 -1.527810 1.527829 7.420195 13.014746 -1.507350 -1.994613 -1.151583 1.151571 0.000004 -0.000000 0.000003 -9.108295 -0.517883 2.259805 1.810266 -8.129050 45.898960 5.787279 -6.557099 89.986062 1.527393 -4.199768 56.404775 -0.000001 0.000002 0.000002 -9.532492 0.000000 0.000000 1.192566 -8.721379 39.978057 4.283032 -6.451103 76.245470 4.143234 -5.607331 73.975368 -0.000001 0.000000 -0.000002 -9.103601 -0.043107 -1.865098 10.904598 -12.390612 80.288266 5.632458 -5.495762 83.822219 1.733587 -3.780490 60.293468 -0.000004 -0.000001 -0.000001 -8.076694 -0.486728 -3.806296 18.555500 -24.475506 92.022422 5.094561 -6.030698 88.482990 0.812237 -4.689137 64.646798 0.000002 -0.000001 -0.000000 4.570399 11.014666 -2.160815 3.140044 -14.475848 -7.327002 2.796863 8.492626 -80.851442 -0.000016 -22.646817 -0.000017 -28.483381 0.419157 -5.460116 2.466092 -1.576198 2.681696 18.491380 -0.461338 10.916065 1.284021 32.757618 -3.089016 2.647900 -1.528742 1.528755 2.117101 9.311245 -0.358922 1.998917 -1.154094 1.154077 0.000001 0.000002 -0.000000 9.109278 -0.518012 2.259903 0.339553 4.671364 -7.844269 0.387013 2.823619 -20.566227 0.034611 0.816845 -10.169793 0.000000 0.000001 -0.000003 9.533403 -0.000012 0.000004 0.911237 8.764458 -15.831969 0.919046 3.991205 -33.400520 0.170556 1.488898 -12.264408 0.000000 -0.000000 0.000001 9.104498 -0.042999 -1.865099 2.554796 11.670913 -26.909091 1.710623 3.886867 -40.215563 0.544842 1.835110 -19.344156 -0.000000 0.000001 0.000000 8.077793 -0.486885 -3.806299 5.574338 16.027000 -36.940426 1.378640 4.077717 -45.645608 0.486568 2.853423 -20.524729 0.000000 0.000001 -0.000002 -8.207800 -6.751712 -1.599545 -0.824818 -6.021293 5.092093 11.450713 -3.996949 2.408067 -10.794931 2.093240 -3.810846 -1.501249 0.000001 0.000000 -0.000000 0.000000 0.000000 8.207799 -6.751695 -1.599544 -16.175068 9.854669 10.026723 20.996300 8.667688 1.443506 -5.171418 4.840380 -5.507013 0.003674 -0.000010 -0.006368 0.000000 0.000000 0.000000 
4.329565 102.307655 5.194364 0.590062 -0.868327 -3.049947 0.000000 10.181543 0.131526 0.750331 -1.178369 2.153648 1.323426 -0.937437 4.181708 1.742087 0.672743 4.429100 -0.000003 16.740355 -2.049018 2.685206 0.678598 -2.084261 0.000000 9.617856 1.684976 1.652606 6.544682 -9.948781 0.000000 22.037384 7.501070 -0.000000 0.000000 0.000000 -4.570001 11.014876 -2.160838 3.398776 -0.643483 -3.467988 38.742701 26.461589 46.979400 -0.000125 72.583027 0.000189 -28.033956 3.955934 -30.707902 -2.464797 -1.573979 2.681898 18.491294 0.461461 -10.916084 0.568048 -26.425312 14.804918 -2.646266 -1.527807 1.527826 7.380250 12.864738 -1.467518 -1.994582 -1.151583 1.151572 0.000004 0.000002 -0.000001 -9.108311 -0.517881 2.259787 1.791449 -8.107760 45.621757 5.736465 -6.556881 89.480751 1.504778 -4.176811 56.095183 -0.000000 -0.000001 -0.000001 -9.532515 0.000002 -0.000011 1.194290 -8.720908 39.803546 4.253063 -6.443106 75.933959 4.102773 -5.595647 73.552518 0.000001 0.000000 -0.000000 -9.103615 -0.043105 -1.865116 10.852884 -12.421543 79.902435 5.600999 -5.495368 83.506105 1.710255 -3.759131 59.984504 0.000001 0.000002 -0.000002 -8.076698 -0.486729 -3.806312 18.410024 -24.483873 91.607747 5.063556 -6.027163 88.171656 0.789662 -4.662489 64.337322 -0.000004 -0.000001 0.000003 4.570401 11.014687 -2.160813 3.169599 -14.435282 -7.167402 3.283566 7.710944 -80.527773 -0.000022 -23.163982 0.000013 -29.617910 2.466899 -6.003035 2.466107 -1.576211 2.681699 18.491368 -0.461340 10.916060 1.284010 32.757632 -3.088986 2.647880 -1.528757 1.528755 2.117128 9.311229 -0.358929 1.998917 -1.154080 1.154073 0.000002 0.000000 0.000003 9.109304 -0.518013 2.259903 0.339557 4.671365 -7.844268 0.387002 2.823615 -20.566191 0.034615 0.816848 -10.169813 -0.000000 0.000000 0.000002 9.533409 -0.000004 0.000001 0.911299 8.764658 -15.831969 0.919026 3.991198 -33.400503 0.170563 1.488903 -12.264422 -0.000001 0.000000 0.000001 9.104507 -0.043001 -1.865099 2.554831 11.671002 -26.909096 1.710615 3.886860 -40.215539 0.544835 1.835111 -19.344165 0.000000 0.000001 0.000000 8.077817 -0.486892 -3.806297 5.574406 16.027095 -36.940450 1.378644 4.077724 -45.645645 0.486567 2.853422 -20.524730 -0.000000 -0.000001 -0.000001 -8.207798 -6.751720 -1.599544 -0.365127 -5.801658 5.524053 10.816665 -3.002740 2.757963 -10.438480 2.126893 -4.617647 -1.343995 0.000004 0.000001 0.000000 -0.000000 -0.000000 8.207800 -6.751713 -1.599543 -16.174407 9.932436 10.738195 21.288498 8.679119 1.690866 -4.939928 5.887098 -5.018553 0.004563 0.000007 -0.008204 -0.000000 0.000001 -0.000000 
3.603230 102.301170 4.934580 0.443912 -1.786288 -3.204434 0.000000 10.181562 0.131523 0.802025 -1.134050 2.201843 1.298704 -0.730908 4.212072 1.682784 0.794720 4.430692 0.000000 16.740353 -2.049019 2.562322 0.679694 -2.068728 -0.000004 9.617860 1.684979 1.631395 6.605527 -9.815912 0.000001 22.037384 7.501073 -0.000000 -0.000000 -0.000000 -4.570000 11.014878 -2.160840 3.439008 -0.538803 -3.217869 36.246711 25.100621 45.795308 -0.000090 70.401649 0.000134 -35.429977 2.818592 -19.672601 -2.464810 -1.573991 2.681892 18.491277 0.461461 -10.916083 0.605800 -26.783540 14.175260 -2.646264 -1.527796 1.527821 7.087280 11.754732 -1.183089 -1.994590 -1.151582 1.151575 0.000000 -0.000005 -0.000000 -9.108325 -0.517872 2.259795 1.655910 -7.948392 43.576832 5.361959 -6.541389 85.751973 1.341857 -4.003613 53.811229 0.000000 0.000002 0.000001 -9.532495 -0.000003 -0.000014 1.205330 -8.718276 38.515522 4.033387 -6.379195 73.635422 3.807009 -5.500428 70.432624 -0.000000 0.000001 0.000001 -9.103601 -0.043117 -1.865112 10.461772 -12.637178 77.052662 5.368907 -5.487127 81.173322 1.541793 -3.597639 57.705188 -0.000000 0.000003 -0.000001 -8.076701 -0.486720 -3.806304 17.344331 -24.504728 88.545924 4.835340 -5.995870 85.874548 0.627491 -4.462324 62.054256 0.000001 -0.000002 0.000004 4.570401 11.014676 -2.160815 3.198934 -14.455807 -6.923472 4.265365 6.835085 -80.265576 0.000026 -23.752599 0.000013 -30.497590 4.310829 -6.440539 2.466094 -1.576218 2.681697 18.491363 -0.461340 10.916042 1.284032 32.757615 -3.088987 2.647895 -1.528750 1.528749 2.117098 9.311231 -0.358910 1.998901 -1.154091 1.154068 -0.000001 -0.000002 -0.000000 9.109287 -0.518012 2.259900 0.339538 4.671361 -7.844277 0.387004 2.823615 -20.566203 0.034618 0.816845 -10.169816 -0.000000 0.000000 0.000001 9.533407 0.000001 0.000000 0.911343 8.764863 -15.831972 0.919035 3.991205 -33.400469 0.170570 1.488907 -12.264413 -0.000000 -0.000000 0.000001 9.104498 -0.042991 -1.865101 2.554873 11.671087 -26.909111 1.710623 3.886864 -40.215573 0.544829 1.835103 -19.344151 -0.000001 0.000001 0.000000 8.077801 -0.486890 -3.806299 5.574459 16.027182 -36.940457 1.378653 4.077729 -45.645639 0.486567 2.853431 -20.524729 0.000000 0.000000 -0.000001 -8.207799 -6.751689 -1.599543 0.134900 -5.632621 5.952727 9.868553 -2.183533 3.115062 -10.059042 2.133333 -5.376581 -1.036211 -0.000001 0.000001 -0.000000 0.000001 0.000000 8.207801 -6.751680 -1.599545 -16.298547 9.856218 11.315543 21.514039 8.649403 2.013768 -4.637621 7.003577 -4.527490 0.004619 0.000004 -0.008751 0.000000 0.000001 -0.000000 
